<svg width="306" height="299" viewBox="0 0 306 299" fill="none" xmlns="http://www.w3.org/2000/svg">
<g filter="url(#filter0_d)">
<rect x="20" y="14" width="266" height="259" rx="8" fill="white"/>
<g clip-path="url(#clip0)">
<path d="M33.1862 45.0343L38.3193 39.6937C38.5675 39.4354 38.9689 39.4354 39.2144 39.6937L39.8138 40.3173C40.0621 40.5755 40.0621 40.9904 39.8138 41.2486L35.7475 45.4986L39.8138 49.7514C40.0594 50.0096 40.0594 50.4244 39.8138 50.6827L39.2144 51.3063C38.9662 51.5646 38.5649 51.5646 38.3193 51.3063L33.1862 45.9657C32.9379 45.7074 32.9379 45.2898 33.1862 45.0343Z" fill="#F16B7B"/>
</g>
<path d="M94.344 50H96.04V41.984C96.04 41.52 96.04 41.088 96.008 40.56L101.688 50H103.928V38.8H102.232V46.352C102.232 46.864 102.248 47.392 102.28 47.872L96.84 38.8H94.344V50ZM109.636 50.272C111.908 50.272 113.524 48.64 113.524 46.128C113.524 43.664 111.908 42 109.636 42C107.38 42 105.764 43.664 105.764 46.128C105.764 48.64 107.364 50.272 109.636 50.272ZM109.636 49.008C108.26 49.008 107.412 47.888 107.412 46.128C107.412 44.368 108.292 43.248 109.636 43.248C110.996 43.248 111.876 44.368 111.876 46.128C111.876 47.888 111.012 49.008 109.636 49.008ZM117.073 50H118.833L121.745 42.256H120.081L118.257 47.68C118.129 48 118.065 48.24 117.985 48.528C117.905 48.24 117.841 48 117.713 47.68L115.841 42.256H114.113L117.073 50ZM126.198 50.272C128.358 50.272 129.542 49.008 129.702 47.552H128.102C127.926 48.608 127.11 49.008 126.198 49.008C124.934 49.008 124.006 48.032 123.974 46.464H129.766V46.144C129.766 43.632 128.454 42 126.118 42C123.942 42 122.358 43.696 122.358 46.096C122.358 48.784 123.878 50.272 126.198 50.272ZM123.99 45.328C124.102 44.128 124.918 43.216 126.102 43.216C127.35 43.216 128.086 44.064 128.086 45.328H123.99ZM131.479 50H133.079V45.472C133.079 44.208 133.767 43.248 134.839 43.248C135.879 43.248 136.311 44.064 136.311 45.408V50H137.911V45.424C137.911 44.208 138.583 43.248 139.671 43.248C140.727 43.248 141.159 44.048 141.159 45.392V50H142.743V45.104C142.743 43.072 141.607 42 140.055 42C138.935 42 138.023 42.656 137.527 43.488C137.143 42.592 136.295 42 135.303 42C134.247 42 133.479 42.592 133.047 43.328C133.063 43.136 133.079 42.944 133.079 42.768V42.256H131.479V50ZM148.886 50.272C150.998 50.272 152.47 48.608 152.47 46.16C152.47 43.744 151.126 42 148.966 42C147.782 42 146.902 42.608 146.406 43.328C146.422 43.104 146.438 42.88 146.438 42.64V38.8H144.838V50H146.438V49.632C146.438 49.392 146.422 49.168 146.406 48.928C146.854 49.68 147.734 50.272 148.886 50.272ZM148.582 49.008C147.27 49.008 146.358 47.856 146.358 46.128C146.358 44.352 147.27 43.248 148.582 43.248C149.958 43.248 150.822 44.464 150.822 46.144C150.822 47.824 149.926 49.008 148.582 49.008ZM157.542 50.272C159.702 50.272 160.886 49.008 161.046 47.552H159.446C159.27 48.608 158.454 49.008 157.542 49.008C156.278 49.008 155.35 48.032 155.318 46.464H161.11V46.144C161.11 43.632 159.798 42 157.462 42C155.286 42 153.702 43.696 153.702 46.096C153.702 48.784 155.222 50.272 157.542 50.272ZM155.334 45.328C155.446 44.128 156.262 43.216 157.446 43.216C158.694 43.216 159.43 44.064 159.43 45.328H155.334ZM162.822 50H164.422V46C164.422 44.288 165.286 43.536 166.662 43.536C166.87 43.536 167.03 43.568 167.142 43.584V42.016C167.014 42 166.886 42 166.758 42C165.59 42 164.79 42.704 164.39 43.584C164.406 43.28 164.422 42.992 164.422 42.688V42.256H162.822V50ZM171.187 50H179.011V48.496H173.315C173.443 48.112 174.051 47.632 175.011 46.928L175.779 46.352C177.699 44.944 178.883 43.744 178.883 41.92C178.883 39.888 177.411 38.528 175.219 38.528C172.915 38.528 171.315 40.016 171.315 42.448V42.72H173.011V42.544C173.011 40.832 173.859 39.888 175.219 39.888C176.467 39.888 177.219 40.72 177.219 41.92C177.219 43.232 176.163 44.16 175.123 44.928L173.923 45.84C172.163 47.152 171.203 48.144 171.187 50ZM184.679 50.272C187.319 50.272 188.871 48.128 188.871 44.432C188.871 40.688 187.239 38.528 184.679 38.528C182.103 38.528 180.487 40.72 180.487 44.4C180.487 48.096 182.007 50.272 184.679 50.272ZM184.695 48.912C183.143 48.912 182.151 47.488 182.151 44.464C182.151 41.344 183.063 39.888 184.695 39.888C186.247 39.888 187.191 41.328 187.191 44.448C187.191 47.504 186.247 48.912 184.695 48.912ZM192.633 50H194.265V38.8H192.889C192.553 40.032 191.353 40.976 190.009 41.152V42.736C191.161 42.688 192.137 42.032 192.649 41.184C192.633 41.504 192.633 41.824 192.633 42.16V50ZM200.041 50.272C201.609 50.272 202.793 49.584 203.529 48.256C204.617 46.288 204.649 42.528 203.577 40.544C202.857 39.2 201.689 38.528 200.217 38.528C198.009 38.528 196.313 40.064 196.313 42.288C196.313 44.512 197.897 45.952 199.833 45.952C201.193 45.952 202.249 45.2 202.761 44.432C202.761 44.624 202.745 44.784 202.745 44.944C202.745 47.04 202.025 48.96 200.105 48.96C198.921 48.96 198.233 48.272 198.169 47.152H196.505C196.569 48.976 197.817 50.272 200.041 50.272ZM200.217 44.624C198.905 44.624 197.993 43.648 197.993 42.224C197.993 40.816 198.953 39.84 200.233 39.84C201.529 39.84 202.457 40.816 202.457 42.208C202.457 43.648 201.481 44.624 200.217 44.624Z" fill="black"/>
<path d="M269.314 45.9657L264.181 51.3063C263.932 51.5646 263.531 51.5646 263.286 51.3063L262.686 50.6827C262.438 50.4245 262.438 50.0096 262.686 49.7514L266.753 45.5014L262.686 41.2486C262.441 40.9904 262.441 40.5756 262.686 40.3173L263.286 39.6937C263.534 39.4354 263.935 39.4354 264.181 39.6937L269.314 45.0343C269.562 45.2926 269.562 45.7102 269.314 45.9657Z" fill="#F16B7B"/>
<path d="M47.32 89H48.67V81.11V79.67L52.27 89H53.785L57.37 79.49V81.11V89H58.705V78.5H56.485L53.59 86.135L53.05 87.56C52.87 87.08 52.675 86.6 52.495 86.135L49.51 78.5H47.32V89ZM64.086 89.225C66.171 89.225 67.641 87.68 67.641 85.37C67.641 83.12 66.171 81.53 64.086 81.53C62.001 81.53 60.531 83.12 60.531 85.37C60.531 87.68 62.001 89.225 64.086 89.225ZM64.086 88.22C62.706 88.22 61.866 87.065 61.866 85.37C61.866 83.675 62.736 82.55 64.086 82.55C65.436 82.55 66.306 83.675 66.306 85.37C66.306 87.065 65.466 88.22 64.086 88.22Z" fill="#979797"/>
<path d="M86.735 89H88.1V79.64H91.73V78.5H83.105V79.64H86.735V89ZM93.8953 89.225C94.8403 89.225 95.7553 88.775 96.1003 87.995V88.565V89H97.3303V81.77H96.0553V85.76C96.0553 87.32 95.3953 88.22 94.2253 88.22C93.0253 88.22 92.5603 87.485 92.5603 86.105V81.77H91.2853V86.375C91.2853 88.205 92.1853 89.225 93.8953 89.225Z" fill="#979797"/>
<path d="M116.045 89H117.725L119.855 81.14L120.215 79.745C120.35 80.21 120.47 80.675 120.59 81.14L122.675 89H124.34L127.19 78.5H125.855L123.77 86.135C123.665 86.54 123.56 86.945 123.44 87.365C123.35 86.975 123.23 86.525 123.125 86.135L121.1 78.5H119.375L117.32 86.135C117.23 86.495 117.095 86.975 116.975 87.35C116.87 86.93 116.765 86.525 116.645 86.135L114.62 78.5H113.21L116.045 89ZM131.115 89.225C133.17 89.225 134.16 88.04 134.325 86.765H133.035C132.855 87.875 132.015 88.22 131.13 88.22C129.885 88.22 128.925 87.275 128.91 85.625H134.385V85.37C134.385 83.045 133.2 81.53 131.04 81.53C129.06 81.53 127.605 83.135 127.605 85.355C127.605 87.86 128.955 89.225 131.115 89.225ZM128.94 84.71C129.045 83.495 129.84 82.55 131.04 82.55C132.315 82.55 133.005 83.42 133.005 84.71H128.94Z" fill="#979797"/>
<path d="M153.735 89H155.1V79.64H158.73V78.5H150.105V79.64H153.735V89ZM159.913 89H161.203V84.65C161.203 83.51 161.938 82.55 163.168 82.55C164.338 82.55 164.803 83.24 164.803 84.605V89H166.093V84.44C166.093 82.58 165.103 81.53 163.423 81.53C162.463 81.53 161.593 82.055 161.203 82.745V82.13V78.5H159.913V89Z" fill="#979797"/>
<path d="M183.32 89H184.7V84.155H189.905V83.015H184.7V79.64H190.16V78.5H183.32V89ZM191.591 89H192.881V85.175C192.881 83.57 193.676 82.79 195.071 82.79C195.251 82.79 195.386 82.805 195.476 82.82V81.545C195.356 81.53 195.236 81.53 195.146 81.53C194.036 81.53 193.241 82.145 192.881 82.97V82.085V81.77H191.591V89Z" fill="#979797"/>
<path d="M214.785 89.225C217.365 89.225 218.91 87.815 218.91 86.09C218.91 84.5 217.695 83.6 216.03 83.21L214.17 82.79C212.94 82.505 212.34 81.965 212.34 81.065C212.34 80.105 213.345 79.415 214.71 79.415C216.18 79.415 217.155 80.195 217.245 81.44H218.64C218.52 79.49 217.02 78.26 214.74 78.26C212.52 78.26 210.9 79.49 210.9 81.185C210.9 82.79 212.235 83.705 213.825 84.08L215.385 84.44C216.63 84.725 217.485 85.175 217.485 86.18C217.485 87.32 216.525 88.085 214.8 88.085C213.135 88.085 212.025 87.14 211.935 85.625H210.54C210.57 87.845 212.235 89.225 214.785 89.225ZM222.627 89.225C223.722 89.225 224.517 88.775 224.862 88.025V88.64V89H226.092V84.26C226.092 82.595 225.072 81.53 223.287 81.53C221.457 81.53 220.422 82.715 220.377 84.035H221.667C221.697 83.135 222.237 82.55 223.332 82.55C224.202 82.55 224.862 83.015 224.862 83.825C224.862 84.215 224.652 84.44 224.142 84.53L222.552 84.77C221.277 84.98 220.152 85.595 220.152 87.02C220.152 88.385 221.247 89.225 222.627 89.225ZM222.807 88.22C222.072 88.22 221.487 87.77 221.487 87.02C221.487 86.225 222.147 85.865 223.002 85.715L224.037 85.535C224.472 85.46 224.772 85.37 224.862 85.25V86.27C224.862 87.44 223.977 88.22 222.807 88.22Z" fill="#979797"/>
<path d="M246.785 89.225C249.365 89.225 250.91 87.815 250.91 86.09C250.91 84.5 249.695 83.6 248.03 83.21L246.17 82.79C244.94 82.505 244.34 81.965 244.34 81.065C244.34 80.105 245.345 79.415 246.71 79.415C248.18 79.415 249.155 80.195 249.245 81.44H250.64C250.52 79.49 249.02 78.26 246.74 78.26C244.52 78.26 242.9 79.49 242.9 81.185C242.9 82.79 244.235 83.705 245.825 84.08L247.385 84.44C248.63 84.725 249.485 85.175 249.485 86.18C249.485 87.32 248.525 88.085 246.8 88.085C245.135 88.085 244.025 87.14 243.935 85.625H242.54C242.57 87.845 244.235 89.225 246.785 89.225ZM255.122 89.225C256.067 89.225 256.982 88.775 257.327 87.995V88.565V89H258.557V81.77H257.282V85.76C257.282 87.32 256.622 88.22 255.452 88.22C254.252 88.22 253.787 87.485 253.787 86.105V81.77H252.512V86.375C252.512 88.205 253.412 89.225 255.122 89.225Z" fill="#979797"/>
<rect opacity="0.3" x="87" y="181" width="132" height="20" fill="#F16B7B"/>
<circle cx="219" cy="191" r="10" fill="#F16B7B"/>
<circle cx="87" cy="191" r="10" fill="#F16B7B"/>
<path opacity="0.3" d="M51.2069 245H56.8229V244.292H52.1789C52.2629 243.92 52.7669 243.452 53.6669 242.78L54.3989 242.228C55.9109 241.088 56.6909 240.2 56.6909 238.94C56.6909 237.416 55.6109 236.432 54.0629 236.432C52.4789 236.432 51.3029 237.572 51.3029 239.288V239.516H52.0829V239.36C52.0829 237.932 52.8989 237.068 54.0629 237.068C55.1909 237.068 55.8989 237.86 55.8989 238.952C55.8989 240.068 55.0709 240.836 54.2069 241.484L52.9949 242.408C51.6989 243.38 51.2309 244.064 51.2069 245Z" fill="black"/>
<path opacity="0.3" d="M86.9822 245.168C88.6142 245.168 89.8382 244.172 89.8382 242.744C89.8382 241.664 89.1902 240.872 88.0382 240.572C89.1182 240.224 89.6222 239.48 89.6222 238.616C89.6222 237.308 88.5182 236.432 87.0422 236.432C85.3862 236.432 84.3182 237.428 84.2582 238.904H85.0382C85.0982 237.776 85.8422 237.068 87.0302 237.068C88.1222 237.068 88.8302 237.668 88.8302 238.64C88.8302 239.612 88.0502 240.26 87.0302 240.26H86.3702V240.944H87.0182C88.1942 240.944 89.0462 241.628 89.0462 242.732C89.0462 243.824 88.1702 244.532 86.9822 244.532C85.6982 244.532 84.9302 243.752 84.8822 242.672H84.1022C84.1502 244.172 85.2422 245.168 86.9822 245.168Z" fill="black"/>
<path opacity="0.3" d="M120.798 245H121.566V242.768H123.126V242.06H121.566V236.6H120.606L116.874 242.024V242.768H120.798V245ZM117.654 242.06C117.75 241.904 117.858 241.748 117.966 241.592L120.402 238.04C120.546 237.836 120.678 237.632 120.798 237.452V242.06H117.654Z" fill="black"/>
<path opacity="0.3" d="M152.932 245.168C154.684 245.168 155.836 243.944 155.836 242.228C155.836 240.584 154.756 239.444 153.244 239.444C152.332 239.444 151.576 239.888 151.12 240.476C151.156 240.224 151.204 239.912 151.228 239.684L151.54 237.308H155.368V236.6H150.952L150.34 241.316H151.084C151.384 240.716 152.116 240.08 153.088 240.08C154.312 240.08 155.032 240.944 155.032 242.276C155.032 243.596 154.252 244.532 152.92 244.532C151.78 244.532 151.036 243.848 150.988 242.804H150.196C150.268 244.22 151.324 245.168 152.932 245.168Z" fill="black"/>
<path opacity="0.3" d="M187.067 245.168C188.675 245.168 189.863 243.944 189.863 242.3C189.863 240.704 188.819 239.54 187.271 239.54C186.227 239.54 185.327 240.104 184.931 241.016C184.931 240.836 184.931 240.68 184.943 240.524C185.051 238.424 185.891 237.056 187.451 237.056C188.363 237.056 188.975 237.656 189.047 238.58H189.827C189.743 237.272 188.819 236.432 187.463 236.432C186.263 236.432 185.363 237.044 184.811 238.064C183.935 239.636 183.875 242.54 184.835 244.004C185.315 244.76 186.071 245.168 187.067 245.168ZM187.067 244.556C185.951 244.556 185.087 243.716 185.087 242.288C185.087 241.088 185.951 240.176 187.127 240.176C188.327 240.176 189.059 241.1 189.059 242.312C189.059 243.62 188.267 244.556 187.067 244.556Z" fill="black"/>
<path opacity="0.3" d="M217.812 245H218.628C218.736 242.18 219.876 239.42 221.688 237.32V236.6H216.288V237.308H220.956C220.824 237.452 220.68 237.608 220.536 237.788C218.976 239.624 218.004 242.12 217.812 245Z" fill="black"/>
<path opacity="0.3" d="M252.02 245.168C253.82 245.168 254.936 244.22 254.936 242.792C254.936 241.832 254.276 240.944 253.1 240.644C254.108 240.332 254.708 239.552 254.708 238.652C254.708 237.404 253.628 236.432 252.02 236.432C250.4 236.432 249.32 237.404 249.32 238.652C249.32 239.552 249.932 240.332 250.94 240.644C249.752 240.944 249.056 241.832 249.056 242.792C249.056 244.22 250.208 245.168 252.02 245.168ZM252.02 240.272C250.88 240.272 250.112 239.6 250.112 238.652C250.112 237.74 250.856 237.044 252.02 237.044C253.184 237.044 253.928 237.74 253.928 238.652C253.928 239.6 253.16 240.272 252.02 240.272ZM252.02 244.556C250.712 244.556 249.86 243.872 249.86 242.792C249.86 241.724 250.736 241.016 252.02 241.016C253.304 241.016 254.12 241.724 254.12 242.792C254.12 243.872 253.328 244.556 252.02 244.556Z" fill="black"/>
<path d="M47.6014 220H53.4694V218.872H49.1974C49.2934 218.584 49.7494 218.224 50.4694 217.696L51.0454 217.264C52.4854 216.208 53.3734 215.308 53.3734 213.94C53.3734 212.416 52.2694 211.396 50.6254 211.396C48.8974 211.396 47.6974 212.512 47.6974 214.336V214.54H48.9694V214.408C48.9694 213.124 49.6054 212.416 50.6254 212.416C51.5614 212.416 52.1254 213.04 52.1254 213.94C52.1254 214.924 51.3334 215.62 50.5534 216.196L49.6534 216.88C48.3334 217.864 47.6134 218.608 47.6014 220ZM57.408 220.204C59.184 220.204 60.432 219.028 60.432 217.204C60.432 215.608 59.364 214.372 57.792 214.372C56.928 214.372 56.22 214.78 55.8 215.332C55.836 215.14 55.872 214.924 55.896 214.744L56.16 212.74H59.964V211.6H55.248L54.612 216.412H55.824C56.028 215.896 56.676 215.38 57.492 215.38C58.572 215.38 59.172 216.184 59.172 217.252C59.172 218.428 58.464 219.184 57.36 219.184C56.352 219.184 55.752 218.56 55.74 217.696H54.504C54.504 219.16 55.608 220.204 57.408 220.204Z" fill="black"/>
<path d="M80.4315 220H86.2995V218.872H82.0275C82.1235 218.584 82.5795 218.224 83.2995 217.696L83.8755 217.264C85.3155 216.208 86.2035 215.308 86.2035 213.94C86.2035 212.416 85.0995 211.396 83.4555 211.396C81.7275 211.396 80.5275 212.512 80.5275 214.336V214.54H81.7995V214.408C81.7995 213.124 82.4355 212.416 83.4555 212.416C84.3915 212.416 84.9555 213.04 84.9555 213.94C84.9555 214.924 84.1635 215.62 83.3835 216.196L82.4835 216.88C81.1635 217.864 80.4435 218.608 80.4315 220ZM90.5501 220.204C92.2181 220.204 93.4781 218.968 93.4781 217.264C93.4781 215.644 92.3981 214.492 90.8381 214.492C89.8061 214.492 89.0021 215.092 88.6421 215.752C88.6541 215.608 88.6541 215.452 88.6661 215.32C88.7621 213.484 89.4581 212.404 90.8021 212.404C91.6421 212.404 92.1701 212.908 92.2061 213.7H93.4661C93.4061 212.344 92.4101 211.396 90.8381 211.396C89.5781 211.396 88.6181 211.984 88.0421 213.028C87.2381 214.48 87.1781 217.132 87.9341 218.596C88.4381 219.64 89.3141 220.204 90.5501 220.204ZM90.5381 219.208C89.5541 219.208 88.8341 218.56 88.8341 217.276C88.8341 216.268 89.5541 215.512 90.5861 215.512C91.5941 215.512 92.2301 216.292 92.2301 217.312C92.2301 218.464 91.5341 219.208 90.5381 219.208Z" fill="black"/>
<path d="M113.9 220H119.768V218.872H115.496C115.592 218.584 116.048 218.224 116.768 217.696L117.344 217.264C118.784 216.208 119.672 215.308 119.672 213.94C119.672 212.416 118.568 211.396 116.924 211.396C115.196 211.396 113.996 212.512 113.996 214.336V214.54H115.268V214.408C115.268 213.124 115.904 212.416 116.924 212.416C117.86 212.416 118.424 213.04 118.424 213.94C118.424 214.924 117.632 215.62 116.852 216.196L115.952 216.88C114.632 217.864 113.912 218.608 113.9 220ZM121.931 220H123.311C123.443 216.952 124.703 214.48 126.311 212.692V211.6H120.539V212.74H125.135C124.991 212.86 124.835 213.004 124.691 213.172C123.275 214.66 122.135 216.976 121.931 220Z" fill="black"/>
<path d="M146.431 220H152.299V218.872H148.027C148.123 218.584 148.579 218.224 149.299 217.696L149.875 217.264C151.315 216.208 152.203 215.308 152.203 213.94C152.203 212.416 151.099 211.396 149.455 211.396C147.727 211.396 146.527 212.512 146.527 214.336V214.54H147.799V214.408C147.799 213.124 148.435 212.416 149.455 212.416C150.391 212.416 150.955 213.04 150.955 213.94C150.955 214.924 150.163 215.62 149.383 216.196L148.483 216.88C147.163 217.864 146.443 218.608 146.431 220ZM156.442 220.204C158.35 220.204 159.514 219.232 159.514 217.756C159.514 216.808 158.842 215.98 157.738 215.644C158.686 215.332 159.298 214.624 159.298 213.7C159.298 212.38 158.158 211.396 156.454 211.396C154.726 211.396 153.598 212.368 153.598 213.724C153.598 214.648 154.234 215.32 155.158 215.644C154.054 216.004 153.382 216.832 153.382 217.792C153.382 219.22 154.51 220.204 156.442 220.204ZM156.454 215.104C155.482 215.104 154.834 214.54 154.834 213.724C154.834 212.944 155.47 212.392 156.454 212.392C157.426 212.392 158.05 212.944 158.05 213.748C158.05 214.552 157.402 215.104 156.454 215.104ZM156.454 219.208C155.374 219.208 154.654 218.608 154.654 217.696C154.654 216.832 155.386 216.196 156.454 216.196C157.51 216.196 158.242 216.832 158.242 217.696C158.242 218.608 157.522 219.208 156.454 219.208Z" fill="black"/>
<path d="M180.478 220H186.346V218.872H182.074C182.17 218.584 182.626 218.224 183.346 217.696L183.922 217.264C185.362 216.208 186.25 215.308 186.25 213.94C186.25 212.416 185.146 211.396 183.502 211.396C181.774 211.396 180.574 212.512 180.574 214.336V214.54H181.846V214.408C181.846 213.124 182.482 212.416 183.502 212.416C184.438 212.416 185.002 213.04 185.002 213.94C185.002 214.924 184.21 215.62 183.43 216.196L182.53 216.88C181.21 217.864 180.49 218.608 180.478 220ZM190.201 220.204C191.377 220.204 192.265 219.688 192.817 218.692C193.633 217.216 193.657 214.396 192.853 212.908C192.313 211.9 191.437 211.396 190.333 211.396C188.677 211.396 187.405 212.548 187.405 214.216C187.405 215.884 188.593 216.964 190.045 216.964C191.065 216.964 191.857 216.4 192.241 215.824C192.241 215.968 192.229 216.088 192.229 216.208C192.229 217.78 191.689 219.22 190.249 219.22C189.361 219.22 188.845 218.704 188.797 217.864H187.549C187.597 219.232 188.533 220.204 190.201 220.204ZM190.333 215.968C189.349 215.968 188.665 215.236 188.665 214.168C188.665 213.112 189.385 212.38 190.345 212.38C191.317 212.38 192.013 213.112 192.013 214.156C192.013 215.236 191.281 215.968 190.333 215.968Z" fill="black"/>
<path d="M215.232 220.204C217.008 220.204 218.28 219.172 218.28 217.744C218.28 216.628 217.62 215.884 216.54 215.596C217.5 215.284 218.076 214.576 218.076 213.676C218.076 212.32 216.924 211.396 215.328 211.396C213.504 211.396 212.4 212.44 212.352 213.988H213.612C213.66 213.016 214.26 212.416 215.304 212.416C216.228 212.416 216.828 212.92 216.828 213.736C216.828 214.648 216.12 215.104 215.268 215.104H214.728V216.16H215.268C216.264 216.16 217.02 216.7 217.02 217.672C217.02 218.608 216.288 219.184 215.232 219.184C214.14 219.184 213.48 218.488 213.48 217.468H212.244C212.244 219.136 213.372 220.204 215.232 220.204ZM222.55 220.204C224.53 220.204 225.694 218.596 225.694 215.824C225.694 213.016 224.47 211.396 222.55 211.396C220.618 211.396 219.406 213.04 219.406 215.8C219.406 218.572 220.546 220.204 222.55 220.204ZM222.562 219.184C221.398 219.184 220.654 218.116 220.654 215.848C220.654 213.508 221.338 212.416 222.562 212.416C223.726 212.416 224.434 213.496 224.434 215.836C224.434 218.128 223.726 219.184 222.562 219.184Z" fill="black"/>
<path opacity="0.3" d="M252.269 220H253.037V211.6H252.377C252.077 212.632 251.225 213.448 250.133 213.64V214.408C251.165 214.264 251.897 213.628 252.269 212.884V214V220Z" fill="black"/>
<path d="M50.3966 195H51.6206V186.6H50.5886C50.3366 187.524 49.4366 188.232 48.4286 188.364V189.552C49.2926 189.516 50.0246 189.024 50.4086 188.388C50.3966 188.628 50.3966 188.868 50.3966 189.12V195ZM56.2409 195.204C58.1489 195.204 59.3129 194.232 59.3129 192.756C59.3129 191.808 58.6409 190.98 57.5369 190.644C58.4849 190.332 59.0969 189.624 59.0969 188.7C59.0969 187.38 57.9569 186.396 56.2529 186.396C54.5249 186.396 53.3969 187.368 53.3969 188.724C53.3969 189.648 54.0329 190.32 54.9569 190.644C53.8529 191.004 53.1809 191.832 53.1809 192.792C53.1809 194.22 54.3089 195.204 56.2409 195.204ZM56.2529 190.104C55.2809 190.104 54.6329 189.54 54.6329 188.724C54.6329 187.944 55.2689 187.392 56.2529 187.392C57.2249 187.392 57.8489 187.944 57.8489 188.748C57.8489 189.552 57.2009 190.104 56.2529 190.104ZM56.2529 194.208C55.1729 194.208 54.4529 193.608 54.4529 192.696C54.4529 191.832 55.1849 191.196 56.2529 191.196C57.3089 191.196 58.0409 191.832 58.0409 192.696C58.0409 193.608 57.3209 194.208 56.2529 194.208Z" fill="black"/>
<path d="M83.4435 195H84.6675V186.6H83.6355C83.3835 187.524 82.4835 188.232 81.4755 188.364V189.552C82.3395 189.516 83.0715 189.024 83.4555 188.388C83.4435 188.628 83.4435 188.868 83.4435 189.12V195ZM88.9998 195.204C90.1758 195.204 91.0638 194.688 91.6158 193.692C92.4318 192.216 92.4558 189.396 91.6518 187.908C91.1118 186.9 90.2358 186.396 89.1318 186.396C87.4758 186.396 86.2038 187.548 86.2038 189.216C86.2038 190.884 87.3918 191.964 88.8438 191.964C89.8638 191.964 90.6558 191.4 91.0398 190.824C91.0398 190.968 91.0278 191.088 91.0278 191.208C91.0278 192.78 90.4878 194.22 89.0478 194.22C88.1598 194.22 87.6438 193.704 87.5958 192.864H86.3478C86.3958 194.232 87.3318 195.204 88.9998 195.204ZM89.1318 190.968C88.1478 190.968 87.4638 190.236 87.4638 189.168C87.4638 188.112 88.1838 187.38 89.1438 187.38C90.1158 187.38 90.8118 188.112 90.8118 189.156C90.8118 190.236 90.0798 190.968 89.1318 190.968Z" fill="white"/>
<path d="M113.332 195H119.2V193.872H114.928C115.024 193.584 115.48 193.224 116.2 192.696L116.776 192.264C118.216 191.208 119.104 190.308 119.104 188.94C119.104 187.416 118 186.396 116.356 186.396C114.628 186.396 113.428 187.512 113.428 189.336V189.54H114.7V189.408C114.7 188.124 115.336 187.416 116.356 187.416C117.292 187.416 117.856 188.04 117.856 188.94C117.856 189.924 117.064 190.62 116.284 191.196L115.384 191.88C114.064 192.864 113.344 193.608 113.332 195ZM123.45 195.204C125.43 195.204 126.594 193.596 126.594 190.824C126.594 188.016 125.37 186.396 123.45 186.396C121.518 186.396 120.306 188.04 120.306 190.8C120.306 193.572 121.446 195.204 123.45 195.204ZM123.462 194.184C122.298 194.184 121.554 193.116 121.554 190.848C121.554 188.508 122.238 187.416 123.462 187.416C124.626 187.416 125.334 188.496 125.334 190.836C125.334 193.128 124.626 194.184 123.462 194.184Z" fill="black"/>
<path d="M147.803 195H153.671V193.872H149.399C149.495 193.584 149.951 193.224 150.671 192.696L151.247 192.264C152.687 191.208 153.575 190.308 153.575 188.94C153.575 187.416 152.471 186.396 150.827 186.396C149.099 186.396 147.899 187.512 147.899 189.336V189.54H149.171V189.408C149.171 188.124 149.807 187.416 150.827 187.416C151.763 187.416 152.327 188.04 152.327 188.94C152.327 189.924 151.535 190.62 150.755 191.196L149.855 191.88C148.535 192.864 147.815 193.608 147.803 195ZM156.457 195H157.681V186.6H156.649C156.397 187.524 155.497 188.232 154.489 188.364V189.552C155.353 189.516 156.085 189.024 156.469 188.388C156.457 188.628 156.457 188.868 156.457 189.12V195Z" fill="black"/>
<path d="M180.601 195H186.469V193.872H182.197C182.293 193.584 182.749 193.224 183.469 192.696L184.045 192.264C185.485 191.208 186.373 190.308 186.373 188.94C186.373 187.416 185.269 186.396 183.625 186.396C181.897 186.396 180.697 187.512 180.697 189.336V189.54H181.969V189.408C181.969 188.124 182.605 187.416 183.625 187.416C184.561 187.416 185.125 188.04 185.125 188.94C185.125 189.924 184.333 190.62 183.553 191.196L182.653 191.88C181.333 192.864 180.613 193.608 180.601 195ZM187.492 195H193.36V193.872H189.088C189.184 193.584 189.64 193.224 190.36 192.696L190.936 192.264C192.376 191.208 193.264 190.308 193.264 188.94C193.264 187.416 192.16 186.396 190.516 186.396C188.788 186.396 187.588 187.512 187.588 189.336V189.54H188.86V189.408C188.86 188.124 189.496 187.416 190.516 187.416C191.452 187.416 192.016 188.04 192.016 188.94C192.016 189.924 191.224 190.62 190.444 191.196L189.544 191.88C188.224 192.864 187.504 193.608 187.492 195Z" fill="black"/>
<path d="M212.502 195H218.37V193.872H214.098C214.194 193.584 214.65 193.224 215.37 192.696L215.946 192.264C217.386 191.208 218.274 190.308 218.274 188.94C218.274 187.416 217.17 186.396 215.526 186.396C213.798 186.396 212.598 187.512 212.598 189.336V189.54H213.87V189.408C213.87 188.124 214.506 187.416 215.526 187.416C216.462 187.416 217.026 188.04 217.026 188.94C217.026 189.924 216.234 190.62 215.454 191.196L214.554 191.88C213.234 192.864 212.514 193.608 212.502 195ZM222.392 195.204C224.168 195.204 225.44 194.172 225.44 192.744C225.44 191.628 224.78 190.884 223.7 190.596C224.66 190.284 225.236 189.576 225.236 188.676C225.236 187.32 224.084 186.396 222.488 186.396C220.664 186.396 219.56 187.44 219.512 188.988H220.772C220.82 188.016 221.42 187.416 222.464 187.416C223.388 187.416 223.988 187.92 223.988 188.736C223.988 189.648 223.28 190.104 222.428 190.104H221.888V191.16H222.428C223.424 191.16 224.18 191.7 224.18 192.672C224.18 193.608 223.448 194.184 222.392 194.184C221.3 194.184 220.64 193.488 220.64 192.468H219.404C219.404 194.136 220.532 195.204 222.392 195.204Z" fill="white"/>
<path d="M245.467 195H251.335V193.872H247.063C247.159 193.584 247.615 193.224 248.335 192.696L248.911 192.264C250.351 191.208 251.239 190.308 251.239 188.94C251.239 187.416 250.135 186.396 248.491 186.396C246.763 186.396 245.563 187.512 245.563 189.336V189.54H246.835V189.408C246.835 188.124 247.471 187.416 248.491 187.416C249.427 187.416 249.991 188.04 249.991 188.94C249.991 189.924 249.199 190.62 248.419 191.196L247.519 191.88C246.199 192.864 245.479 193.608 245.467 195ZM255.959 195H257.183V192.9H258.731V191.808H257.183V186.6H255.575L252.071 191.772V192.9H255.959V195ZM253.235 191.808L253.547 191.364L255.599 188.316C255.731 188.124 255.851 187.932 255.959 187.74V191.808H253.235Z" fill="black"/>
<path d="M51.7677 170H52.9917V161.6H51.9597C51.7077 162.524 50.8077 163.232 49.7997 163.364V164.552C50.6637 164.516 51.3957 164.024 51.7797 163.388C51.7677 163.628 51.7677 163.868 51.7677 164.12V170ZM56.256 170H57.48V161.6H56.448C56.196 162.524 55.296 163.232 54.288 163.364V164.552C55.152 164.516 55.884 164.024 56.268 163.388C56.256 163.628 56.256 163.868 56.256 164.12V170Z" fill="black"/>
<path d="M83.5665 170H84.7905V161.6H83.7585C83.5065 162.524 82.6065 163.232 81.5985 163.364V164.552C82.4625 164.516 83.1945 164.024 83.5785 163.388C83.5665 163.628 83.5665 163.868 83.5665 164.12V170ZM86.2908 170H92.1588V168.872H87.8868C87.9828 168.584 88.4388 168.224 89.1588 167.696L89.7348 167.264C91.1748 166.208 92.0628 165.308 92.0628 163.94C92.0628 162.416 90.9588 161.396 89.3148 161.396C87.5868 161.396 86.3868 162.512 86.3868 164.336V164.54H87.6588V164.408C87.6588 163.124 88.2948 162.416 89.3148 162.416C90.2508 162.416 90.8148 163.04 90.8148 163.94C90.8148 164.924 90.0228 165.62 89.2428 166.196L88.3428 166.88C87.0228 167.864 86.3028 168.608 86.2908 170Z" fill="black"/>
<path d="M116.467 170H117.691V161.6H116.659C116.407 162.524 115.507 163.232 114.499 163.364V164.552C115.363 164.516 116.095 164.024 116.479 163.388C116.467 163.628 116.467 163.868 116.467 164.12V170ZM122.191 170.204C123.967 170.204 125.239 169.172 125.239 167.744C125.239 166.628 124.579 165.884 123.499 165.596C124.459 165.284 125.035 164.576 125.035 163.676C125.035 162.32 123.883 161.396 122.287 161.396C120.463 161.396 119.359 162.44 119.311 163.988H120.571C120.619 163.016 121.219 162.416 122.263 162.416C123.187 162.416 123.787 162.92 123.787 163.736C123.787 164.648 123.079 165.104 122.227 165.104H121.687V166.16H122.227C123.223 166.16 123.979 166.7 123.979 167.672C123.979 168.608 123.247 169.184 122.191 169.184C121.099 169.184 120.439 168.488 120.439 167.468H119.203C119.203 169.136 120.331 170.204 122.191 170.204Z" fill="black"/>
<path d="M149.391 170H150.615V161.6H149.583C149.331 162.524 148.431 163.232 147.423 163.364V164.552C148.287 164.516 149.019 164.024 149.403 163.388C149.391 163.628 149.391 163.868 149.391 164.12V170ZM155.799 170H157.023V167.9H158.571V166.808H157.023V161.6H155.415L151.911 166.772V167.9H155.799V170ZM153.075 166.808L153.387 166.364L155.439 163.316C155.571 163.124 155.691 162.932 155.799 162.74V166.808H153.075Z" fill="black"/>
<path d="M183.567 170H184.791V161.6H183.759C183.507 162.524 182.607 163.232 181.599 163.364V164.552C182.463 164.516 183.195 164.024 183.579 163.388C183.567 163.628 183.567 163.868 183.567 164.12V170ZM189.207 170.204C190.983 170.204 192.231 169.028 192.231 167.204C192.231 165.608 191.163 164.372 189.591 164.372C188.727 164.372 188.019 164.78 187.599 165.332C187.635 165.14 187.671 164.924 187.695 164.744L187.959 162.74H191.763V161.6H187.047L186.411 166.412H187.623C187.827 165.896 188.475 165.38 189.291 165.38C190.371 165.38 190.971 166.184 190.971 167.252C190.971 168.428 190.263 169.184 189.159 169.184C188.151 169.184 187.551 168.56 187.539 167.696H186.303C186.303 169.16 187.407 170.204 189.207 170.204Z" fill="black"/>
<path d="M215.397 170H216.621V161.6H215.589C215.337 162.524 214.437 163.232 213.429 163.364V164.552C214.293 164.516 215.025 164.024 215.409 163.388C215.397 163.628 215.397 163.868 215.397 164.12V170ZM221.349 170.204C223.017 170.204 224.277 168.968 224.277 167.264C224.277 165.644 223.197 164.492 221.637 164.492C220.605 164.492 219.801 165.092 219.441 165.752C219.453 165.608 219.453 165.452 219.465 165.32C219.561 163.484 220.257 162.404 221.601 162.404C222.441 162.404 222.969 162.908 223.005 163.7H224.265C224.205 162.344 223.209 161.396 221.637 161.396C220.377 161.396 219.417 161.984 218.841 163.028C218.037 164.48 217.977 167.132 218.733 168.596C219.237 169.64 220.113 170.204 221.349 170.204ZM221.337 169.208C220.353 169.208 219.633 168.56 219.633 167.276C219.633 166.268 220.353 165.512 221.385 165.512C222.393 165.512 223.029 166.292 223.029 167.312C223.029 168.464 222.333 169.208 221.337 169.208Z" fill="black"/>
<path d="M248.865 170H250.089V161.6H249.057C248.805 162.524 247.905 163.232 246.897 163.364V164.552C247.761 164.516 248.493 164.024 248.877 163.388C248.865 163.628 248.865 163.868 248.865 164.12V170ZM252.73 170H254.11C254.242 166.952 255.502 164.48 257.11 162.692V161.6H251.338V162.74H255.934C255.79 162.86 255.634 163.004 255.49 163.172C254.074 164.66 252.934 166.976 252.73 170Z" fill="black"/>
<path d="M54.5549 145H55.7789V142.9H57.3269V141.808H55.7789V136.6H54.1709L50.6669 141.772V142.9H54.5549V145ZM51.8309 141.808L52.1429 141.364L54.1949 138.316C54.3269 138.124 54.4469 137.932 54.5549 137.74V141.808H51.8309Z" fill="black"/>
<path d="M86.9627 145.204C88.7387 145.204 89.9867 144.028 89.9867 142.204C89.9867 140.608 88.9187 139.372 87.3467 139.372C86.4827 139.372 85.7747 139.78 85.3547 140.332C85.3907 140.14 85.4267 139.924 85.4507 139.744L85.7147 137.74H89.5187V136.6H84.8027L84.1667 141.412H85.3787C85.5827 140.896 86.2307 140.38 87.0467 140.38C88.1267 140.38 88.7267 141.184 88.7267 142.252C88.7267 143.428 88.0187 144.184 86.9147 144.184C85.9067 144.184 85.3067 143.56 85.2947 142.696H84.0587C84.0587 144.16 85.1627 145.204 86.9627 145.204Z" fill="black"/>
<path d="M120.105 145.204C121.773 145.204 123.033 143.968 123.033 142.264C123.033 140.644 121.953 139.492 120.393 139.492C119.361 139.492 118.557 140.092 118.197 140.752C118.209 140.608 118.209 140.452 118.221 140.32C118.317 138.484 119.013 137.404 120.357 137.404C121.197 137.404 121.725 137.908 121.761 138.7H123.021C122.961 137.344 121.965 136.396 120.393 136.396C119.133 136.396 118.173 136.984 117.597 138.028C116.793 139.48 116.733 142.132 117.489 143.596C117.993 144.64 118.869 145.204 120.105 145.204ZM120.093 144.208C119.109 144.208 118.389 143.56 118.389 142.276C118.389 141.268 119.109 140.512 120.141 140.512C121.149 140.512 121.785 141.292 121.785 142.312C121.785 143.464 121.089 144.208 120.093 144.208Z" fill="black"/>
<path d="M151.486 145H152.866C152.998 141.952 154.258 139.48 155.866 137.692V136.6H150.094V137.74H154.69C154.546 137.86 154.39 138.004 154.246 138.172C152.83 139.66 151.69 141.976 151.486 145Z" fill="black"/>
<path d="M186.997 145.204C188.905 145.204 190.069 144.232 190.069 142.756C190.069 141.808 189.397 140.98 188.293 140.644C189.241 140.332 189.853 139.624 189.853 138.7C189.853 137.38 188.713 136.396 187.009 136.396C185.281 136.396 184.153 137.368 184.153 138.724C184.153 139.648 184.789 140.32 185.713 140.644C184.609 141.004 183.937 141.832 183.937 142.792C183.937 144.22 185.065 145.204 186.997 145.204ZM187.009 140.104C186.037 140.104 185.389 139.54 185.389 138.724C185.389 137.944 186.025 137.392 187.009 137.392C187.981 137.392 188.605 137.944 188.605 138.748C188.605 139.552 187.957 140.104 187.009 140.104ZM187.009 144.208C185.929 144.208 185.209 143.608 185.209 142.696C185.209 141.832 185.941 141.196 187.009 141.196C188.065 141.196 188.797 141.832 188.797 142.696C188.797 143.608 188.077 144.208 187.009 144.208Z" fill="black"/>
<path d="M218.756 145.204C219.932 145.204 220.82 144.688 221.372 143.692C222.188 142.216 222.212 139.396 221.408 137.908C220.868 136.9 219.992 136.396 218.888 136.396C217.232 136.396 215.96 137.548 215.96 139.216C215.96 140.884 217.148 141.964 218.6 141.964C219.62 141.964 220.412 141.4 220.796 140.824C220.796 140.968 220.784 141.088 220.784 141.208C220.784 142.78 220.244 144.22 218.804 144.22C217.916 144.22 217.4 143.704 217.352 142.864H216.104C216.152 144.232 217.088 145.204 218.756 145.204ZM218.888 140.968C217.904 140.968 217.22 140.236 217.22 139.168C217.22 138.112 217.94 137.38 218.9 137.38C219.872 137.38 220.568 138.112 220.568 139.156C220.568 140.236 219.836 140.968 218.888 140.968Z" fill="black"/>
<path d="M248.297 145H249.521V136.6H248.489C248.237 137.524 247.337 138.232 246.329 138.364V139.552C247.193 139.516 247.925 139.024 248.309 138.388C248.297 138.628 248.297 138.868 248.297 139.12V145ZM254.249 145.204C256.229 145.204 257.393 143.596 257.393 140.824C257.393 138.016 256.169 136.396 254.249 136.396C252.317 136.396 251.105 138.04 251.105 140.8C251.105 143.572 252.245 145.204 254.249 145.204ZM254.261 144.184C253.097 144.184 252.353 143.116 252.353 140.848C252.353 138.508 253.037 137.416 254.261 137.416C255.425 137.416 256.133 138.496 256.133 140.836C256.133 143.128 255.425 144.184 254.261 144.184Z" fill="black"/>
<path opacity="0.3" d="M47.6033 120H53.2193V119.292H48.5753C48.6593 118.92 49.1633 118.452 50.0633 117.78L50.7953 117.228C52.3073 116.088 53.0873 115.2 53.0873 113.94C53.0873 112.416 52.0073 111.432 50.4593 111.432C48.8753 111.432 47.6993 112.572 47.6993 114.288V114.516H48.4793V114.36C48.4793 112.932 49.2953 112.068 50.4593 112.068C51.5873 112.068 52.2953 112.86 52.2953 113.952C52.2953 115.068 51.4673 115.836 50.6033 116.484L49.3913 117.408C48.0953 118.38 47.6273 119.064 47.6033 120ZM57.3896 120.168C59.1896 120.168 60.3056 119.22 60.3056 117.792C60.3056 116.832 59.6456 115.944 58.4696 115.644C59.4776 115.332 60.0776 114.552 60.0776 113.652C60.0776 112.404 58.9976 111.432 57.3896 111.432C55.7696 111.432 54.6896 112.404 54.6896 113.652C54.6896 114.552 55.3016 115.332 56.3096 115.644C55.1216 115.944 54.4256 116.832 54.4256 117.792C54.4256 119.22 55.5776 120.168 57.3896 120.168ZM57.3896 115.272C56.2496 115.272 55.4816 114.6 55.4816 113.652C55.4816 112.74 56.2256 112.044 57.3896 112.044C58.5536 112.044 59.2976 112.74 59.2976 113.652C59.2976 114.6 58.5296 115.272 57.3896 115.272ZM57.3896 119.556C56.0816 119.556 55.2296 118.872 55.2296 117.792C55.2296 116.724 56.1056 116.016 57.3896 116.016C58.6736 116.016 59.4896 116.724 59.4896 117.792C59.4896 118.872 58.6976 119.556 57.3896 119.556Z" fill="black"/>
<path opacity="0.3" d="M80.6795 120H86.2955V119.292H81.6515C81.7355 118.92 82.2395 118.452 83.1395 117.78L83.8715 117.228C85.3835 116.088 86.1635 115.2 86.1635 113.94C86.1635 112.416 85.0835 111.432 83.5355 111.432C81.9515 111.432 80.7755 112.572 80.7755 114.288V114.516H81.5555V114.36C81.5555 112.932 82.3715 112.068 83.5355 112.068C84.6635 112.068 85.3715 112.86 85.3715 113.952C85.3715 115.068 84.5435 115.836 83.6795 116.484L82.4675 117.408C81.1715 118.38 80.7035 119.064 80.6795 120ZM90.0458 120.168C91.2338 120.168 92.0978 119.592 92.6138 118.596C93.3578 117.132 93.4298 114.384 92.6738 112.896C92.1938 111.96 91.3778 111.432 90.2498 111.432C88.6658 111.432 87.4898 112.572 87.4898 114.204C87.4898 115.74 88.6418 116.904 90.1298 116.904C91.1138 116.904 92.0018 116.388 92.4218 115.5V115.908C92.4218 118.116 91.6418 119.544 90.0818 119.544C89.1338 119.544 88.4978 118.992 88.3898 118.068H87.5978C87.7058 119.304 88.5818 120.168 90.0458 120.168ZM90.2618 116.28C89.1098 116.28 88.2818 115.356 88.2818 114.18C88.2818 112.944 89.1098 112.044 90.2618 112.044C91.4018 112.044 92.2658 112.944 92.2658 114.18C92.2658 115.368 91.4018 116.28 90.2618 116.28Z" fill="black"/>
<path opacity="0.3" d="M116.344 120.168C117.976 120.168 119.2 119.172 119.2 117.744C119.2 116.664 118.552 115.872 117.4 115.572C118.48 115.224 118.984 114.48 118.984 113.616C118.984 112.308 117.88 111.432 116.404 111.432C114.748 111.432 113.68 112.428 113.62 113.904H114.4C114.46 112.776 115.204 112.068 116.392 112.068C117.484 112.068 118.192 112.668 118.192 113.64C118.192 114.612 117.412 115.26 116.392 115.26H115.732V115.944H116.38C117.556 115.944 118.408 116.628 118.408 117.732C118.408 118.824 117.532 119.532 116.344 119.532C115.06 119.532 114.292 118.752 114.244 117.672H113.464C113.512 119.172 114.604 120.168 116.344 120.168ZM123.507 120.168C125.343 120.168 126.447 118.56 126.447 115.812C126.447 113.076 125.319 111.432 123.507 111.432C121.695 111.432 120.567 113.088 120.567 115.812C120.567 118.536 121.659 120.168 123.507 120.168ZM123.507 119.532C122.139 119.532 121.359 118.236 121.359 115.812C121.359 113.388 122.103 112.068 123.507 112.068C124.899 112.068 125.643 113.388 125.643 115.812C125.643 118.248 124.887 119.532 123.507 119.532Z" fill="black"/>
<path opacity="0.3" d="M150.767 120.168C152.399 120.168 153.623 119.172 153.623 117.744C153.623 116.664 152.975 115.872 151.823 115.572C152.903 115.224 153.407 114.48 153.407 113.616C153.407 112.308 152.303 111.432 150.827 111.432C149.171 111.432 148.103 112.428 148.043 113.904H148.823C148.883 112.776 149.627 112.068 150.815 112.068C151.907 112.068 152.615 112.668 152.615 113.64C152.615 114.612 151.835 115.26 150.815 115.26H150.155V115.944H150.803C151.979 115.944 152.831 116.628 152.831 117.732C152.831 118.824 151.955 119.532 150.767 119.532C149.483 119.532 148.715 118.752 148.667 117.672H147.887C147.935 119.172 149.027 120.168 150.767 120.168ZM156.779 120H157.547V111.6H156.887C156.587 112.632 155.735 113.448 154.643 113.64V114.408C155.675 114.264 156.407 113.628 156.779 112.884V114V120Z" fill="black"/>
<path d="M187.012 120H188.236V111.6H187.204C186.952 112.524 186.052 113.232 185.044 113.364V114.552C185.908 114.516 186.64 114.024 187.024 113.388C187.012 113.628 187.012 113.868 187.012 114.12V120Z" fill="black"/>
<path d="M216.047 120H221.915V118.872H217.643C217.739 118.584 218.195 118.224 218.915 117.696L219.491 117.264C220.931 116.208 221.819 115.308 221.819 113.94C221.819 112.416 220.715 111.396 219.071 111.396C217.343 111.396 216.143 112.512 216.143 114.336V114.54H217.415V114.408C217.415 113.124 218.051 112.416 219.071 112.416C220.007 112.416 220.571 113.04 220.571 113.94C220.571 114.924 219.779 115.62 218.999 116.196L218.099 116.88C216.779 117.864 216.059 118.608 216.047 120Z" fill="black"/>
<path d="M251.947 120.204C253.723 120.204 254.995 119.172 254.995 117.744C254.995 116.628 254.335 115.884 253.255 115.596C254.215 115.284 254.791 114.576 254.791 113.676C254.791 112.32 253.639 111.396 252.043 111.396C250.219 111.396 249.115 112.44 249.067 113.988H250.327C250.375 113.016 250.975 112.416 252.019 112.416C252.943 112.416 253.543 112.92 253.543 113.736C253.543 114.648 252.835 115.104 251.983 115.104H251.443V116.16H251.983C252.979 116.16 253.735 116.7 253.735 117.672C253.735 118.608 253.003 119.184 251.947 119.184C250.855 119.184 250.195 118.488 250.195 117.468H248.959C248.959 119.136 250.087 120.204 251.947 120.204Z" fill="black"/>
<rect x="21" y="15" width="264" height="257" rx="7" stroke="#D8D8D8" stroke-width="2"/>
</g>
<path d="M145 15L153 7L161 15" stroke="#D8D8D8" stroke-width="1.5" stroke-linejoin="round"/>
<path d="M153 8.09998L143 18.1H163L153 8.09998Z" fill="white"/>
<defs>
<filter id="filter0_d" x="0" y="0" width="306" height="299" filterUnits="userSpaceOnUse" color-interpolation-filters="sRGB">
<feFlood flood-opacity="0" result="BackgroundImageFix"/>
<feColorMatrix in="SourceAlpha" type="matrix" values="0 0 0 0 0 0 0 0 0 0 0 0 0 0 0 0 0 0 127 0"/>
<feOffset dy="6"/>
<feGaussianBlur stdDeviation="10"/>
<feColorMatrix type="matrix" values="0 0 0 0 0 0 0 0 0 0 0 0 0 0 0 0 0 0 0.15 0"/>
<feBlend mode="normal" in2="BackgroundImageFix" result="effect1_dropShadow"/>
<feBlend mode="normal" in="SourceGraphic" in2="effect1_dropShadow" result="shape"/>
</filter>
<clipPath id="clip0">
<path d="M33 39.5H40V51.5H33V39.5Z" fill="white"/>
</clipPath>
</defs>
</svg>
